<svg fill="none" height="24" viewBox="0 0 24 24" width="24" xmlns="http://www.w3.org/2000/svg"><path d="m12 2c-5.51 0-10 4.49-10 10s4.49 10 10 10 10-4.49 10-10-4.49-10-10-10zm-.75 6c0-.41.34-.75.75-.75s.75.34.75.75v5c0 .41-.34.75-.75.75s-.75-.34-.75-.75zm1.67 8.38c-.05.13-.12.23-.21.33-.1.09-.21.16-.33.21s-.25.08-.38.08-.26-.03-.38-.08-.23-.12-.33-.21c-.09-.1-.16-.2-.21-.33-.05-.12-.08-.25-.08-.38s.03-.26.08-.38.12-.23.21-.33c.1-.09.21-.16.33-.21.24-.1.52-.1.76 0 .12.05.23.12.33.21.09.1.16.21.21.33s.08.25.08.38-.03.26-.08.38z" fill="#292d32"/></svg>